<svg width="27" height="27" viewBox="0 0 27 27" fill="none" xmlns="http://www.w3.org/2000/svg">
<path d="M16.3749 6.87504C16.1459 7.1087 16.0176 7.42285 16.0176 7.75004C16.0176 8.07723 16.1459 8.39137 16.3749 8.62504L18.3749 10.625C18.6086 10.8541 18.9227 10.9824 19.2499 10.9824C19.5771 10.9824 19.8913 10.8541 20.1249 10.625L24.8374 5.91254C25.466 7.30152 25.6563 8.84908 25.383 10.349C25.1097 11.8489 24.3858 13.2298 23.3078 14.3079C22.2297 15.3859 20.8488 16.1098 19.3489 16.3831C17.849 16.6564 16.3014 16.4661 14.9124 15.8375L6.27494 24.475C5.77766 24.9723 5.1032 25.2517 4.39994 25.2517C3.69668 25.2517 3.02222 24.9723 2.52494 24.475C2.02766 23.9778 1.74829 23.3033 1.74829 22.6C1.74829 21.8968 2.02766 21.2223 2.52494 20.725L11.1624 12.0875C10.5339 10.6985 10.3436 9.15099 10.6169 7.6511C10.8902 6.15122 11.614 4.77023 12.6921 3.69219C13.7701 2.61415 15.1511 1.89025 16.651 1.61696C18.1509 1.34368 19.6985 1.53399 21.0874 2.16254L16.3874 6.86254L16.3749 6.87504Z" stroke="white" stroke-width="2" stroke-linecap="round" stroke-linejoin="round"/>
</svg>
