<svg width="26" height="38" viewBox="0 0 26 38" fill="none" xmlns="http://www.w3.org/2000/svg">
<path d="M1 7C1 5.4087 1.63214 3.88258 2.75736 2.75736C3.88258 1.63214 5.4087 1 7 1H13V13H7C5.4087 13 3.88258 12.3679 2.75736 11.2426C1.63214 10.1174 1 8.5913 1 7Z" stroke="white" stroke-width="2" stroke-linecap="round" stroke-linejoin="round"/>
<path d="M13 1H19C19.7879 1 20.5681 1.15519 21.2961 1.45672C22.0241 1.75825 22.6855 2.20021 23.2426 2.75736C23.7998 3.31451 24.2417 3.97595 24.5433 4.7039C24.8448 5.43185 25 6.21207 25 7C25 7.78793 24.8448 8.56815 24.5433 9.2961C24.2417 10.0241 23.7998 10.6855 23.2426 11.2426C22.6855 11.7998 22.0241 12.2417 21.2961 12.5433C20.5681 12.8448 19.7879 13 19 13H13V1Z" stroke="white" stroke-width="2" stroke-linecap="round" stroke-linejoin="round"/>
<path d="M13 19C13 18.2121 13.1552 17.4319 13.4567 16.7039C13.7583 15.9759 14.2002 15.3145 14.7574 14.7574C15.3145 14.2002 15.9759 13.7583 16.7039 13.4567C17.4319 13.1552 18.2121 13 19 13C19.7879 13 20.5681 13.1552 21.2961 13.4567C22.0241 13.7583 22.6855 14.2002 23.2426 14.7574C23.7998 15.3145 24.2417 15.9759 24.5433 16.7039C24.8448 17.4319 25 18.2121 25 19C25 19.7879 24.8448 20.5681 24.5433 21.2961C24.2417 22.0241 23.7998 22.6855 23.2426 23.2426C22.6855 23.7998 22.0241 24.2417 21.2961 24.5433C20.5681 24.8448 19.7879 25 19 25C18.2121 25 17.4319 24.8448 16.7039 24.5433C15.9759 24.2417 15.3145 23.7998 14.7574 23.2426C14.2002 22.6855 13.7583 22.0241 13.4567 21.2961C13.1552 20.5681 13 19.7879 13 19Z" stroke="white" stroke-width="2" stroke-linecap="round" stroke-linejoin="round"/>
<path d="M1 31C1 29.4087 1.63214 27.8826 2.75736 26.7574C3.88258 25.6321 5.4087 25 7 25H13V31C13 32.5913 12.3679 34.1174 11.2426 35.2426C10.1174 36.3679 8.5913 37 7 37C5.4087 37 3.88258 36.3679 2.75736 35.2426C1.63214 34.1174 1 32.5913 1 31Z" stroke="white" stroke-width="2" stroke-linecap="round" stroke-linejoin="round"/>
<path d="M1 19C1 17.4087 1.63214 15.8826 2.75736 14.7574C3.88258 13.6321 5.4087 13 7 13H13V25H7C5.4087 25 3.88258 24.3679 2.75736 23.2426C1.63214 22.1174 1 20.5913 1 19Z" stroke="white" stroke-width="2" stroke-linecap="round" stroke-linejoin="round"/>
</svg>
