<svg width="35" height="35" viewBox="0 0 35 35" fill="none" xmlns="http://www.w3.org/2000/svg">
<path d="M17.5001 18.9584C18.3055 18.9584 18.9584 18.3055 18.9584 17.5001C18.9584 16.6947 18.3055 16.0417 17.5001 16.0417C16.6947 16.0417 16.0417 16.6947 16.0417 17.5001C16.0417 18.3055 16.6947 18.9584 17.5001 18.9584Z" stroke="white" stroke-width="2" stroke-linecap="round" stroke-linejoin="round"/>
<path d="M27.7083 18.9584C28.5137 18.9584 29.1667 18.3055 29.1667 17.5001C29.1667 16.6947 28.5137 16.0417 27.7083 16.0417C26.9029 16.0417 26.25 16.6947 26.25 17.5001C26.25 18.3055 26.9029 18.9584 27.7083 18.9584Z" stroke="white" stroke-width="2" stroke-linecap="round" stroke-linejoin="round"/>
<path d="M7.29159 18.9584C8.097 18.9584 8.74992 18.3055 8.74992 17.5001C8.74992 16.6947 8.097 16.0417 7.29159 16.0417C6.48617 16.0417 5.83325 16.6947 5.83325 17.5001C5.83325 18.3055 6.48617 18.9584 7.29159 18.9584Z" stroke="white" stroke-width="2" stroke-linecap="round" stroke-linejoin="round"/>
</svg>
