<svg width="35" height="36" viewBox="0 0 35 36" fill="none" xmlns="http://www.w3.org/2000/svg">
<path d="M24.7916 31.5V28.5C24.7916 26.9087 24.177 25.3826 23.083 24.2574C21.9891 23.1321 20.5053 22.5 18.9583 22.5H7.29159C5.74449 22.5 4.26076 23.1321 3.1668 24.2574C2.07283 25.3826 1.45825 26.9087 1.45825 28.5V31.5" stroke="white" stroke-width="2" stroke-linecap="round" stroke-linejoin="round"/>
<path d="M13.1251 16.5C16.3467 16.5 18.9584 13.8137 18.9584 10.5C18.9584 7.18629 16.3467 4.5 13.1251 4.5C9.90342 4.5 7.29175 7.18629 7.29175 10.5C7.29175 13.8137 9.90342 16.5 13.1251 16.5Z" stroke="white" stroke-width="2" stroke-linecap="round" stroke-linejoin="round"/>
<path d="M31.5417 31.4998V28.4998C31.5408 27.1704 31.1106 25.879 30.3187 24.8283C29.5269 23.7776 28.4182 23.0272 27.1667 22.6948" stroke="white" stroke-width="2" stroke-linecap="round" stroke-linejoin="round"/>
<path d="M21.3333 4.69482C22.588 5.02528 23.7002 5.77588 24.4944 6.82829C25.2886 7.8807 25.7197 9.17507 25.7197 10.5073C25.7197 11.8396 25.2886 13.1339 24.4944 14.1864C23.7002 15.2388 22.588 15.9894 21.3333 16.3198" stroke="white" stroke-width="2" stroke-linecap="round" stroke-linejoin="round"/>
</svg>
